<?xml version="1.0" encoding="utf-8"?>
<!-- Generator: Adobe Illustrator 22.1.0, SVG Export Plug-In . SVG Version: 6.00 Build 0)  -->
<svg version="1.1" id="Layer_1" xmlns="http://www.w3.org/2000/svg" xmlns:xlink="http://www.w3.org/1999/xlink" x="0px" y="0px"
	 viewBox="0 0 398.3 398.3" style="enable-background:new 0 0 398.3 398.3;" xml:space="preserve">
<style type="text/css">
	.st0{fill:#FFFFFF;stroke:#FFFFFF;stroke-width:0.75;stroke-linecap:round;stroke-linejoin:round;stroke-miterlimit:10;}
	.st1{fill:#053061;stroke:#053061;stroke-width:0.75;stroke-linecap:round;stroke-linejoin:round;stroke-miterlimit:10;}
	.st2{fill:#9B1027;stroke:#9B1027;stroke-width:0.75;stroke-linecap:round;stroke-linejoin:round;stroke-miterlimit:10;}
	.st3{fill:#9F1228;stroke:#9F1228;stroke-width:0.75;stroke-linecap:round;stroke-linejoin:round;stroke-miterlimit:10;}
	.st4{fill:#B51F2E;stroke:#B51F2E;stroke-width:0.75;stroke-linecap:round;stroke-linejoin:round;stroke-miterlimit:10;}
	.st5{fill:#337FB8;stroke:#337FB8;stroke-width:0.75;stroke-linecap:round;stroke-linejoin:round;stroke-miterlimit:10;}
	.st6{fill:#970F26;stroke:#970F26;stroke-width:0.75;stroke-linecap:round;stroke-linejoin:round;stroke-miterlimit:10;}
	.st7{fill:#8BC0DB;stroke:#8BC0DB;stroke-width:0.75;stroke-linecap:round;stroke-linejoin:round;stroke-miterlimit:10;}
	.st8{fill:#3783BB;stroke:#3783BB;stroke-width:0.75;stroke-linecap:round;stroke-linejoin:round;stroke-miterlimit:10;}
	.st9{fill:#4393C3;stroke:#4393C3;stroke-width:0.75;stroke-linecap:round;stroke-linejoin:round;stroke-miterlimit:10;}
	.st10{fill:#6FAFD2;stroke:#6FAFD2;stroke-width:0.75;stroke-linecap:round;stroke-linejoin:round;stroke-miterlimit:10;}
	.st11{fill:#DC6E58;stroke:#DC6E58;stroke-width:0.75;stroke-linecap:round;stroke-linejoin:round;stroke-miterlimit:10;}
	.st12{fill:#114882;stroke:#114882;stroke-width:0.75;stroke-linecap:round;stroke-linejoin:round;stroke-miterlimit:10;}
	.st13{fill:#1B5B9D;stroke:#1B5B9D;stroke-width:0.75;stroke-linecap:round;stroke-linejoin:round;stroke-miterlimit:10;}
	.st14{fill:#C43C3C;stroke:#C43C3C;stroke-width:0.75;stroke-linecap:round;stroke-linejoin:round;stroke-miterlimit:10;}
	.st15{fill:#2268AD;stroke:#2268AD;stroke-width:0.75;stroke-linecap:round;stroke-linejoin:round;stroke-miterlimit:10;}
	.st16{fill:#D6604D;stroke:#D6604D;stroke-width:0.75;stroke-linecap:round;stroke-linejoin:round;stroke-miterlimit:10;}
	.st17{fill:#AA1529;stroke:#AA1529;stroke-width:0.75;stroke-linecap:round;stroke-linejoin:round;stroke-miterlimit:10;}
	.st18{fill:#E07860;stroke:#E07860;stroke-width:0.75;stroke-linecap:round;stroke-linejoin:round;stroke-miterlimit:10;}
	.st19{fill:#E58368;stroke:#E58368;stroke-width:0.75;stroke-linecap:round;stroke-linejoin:round;stroke-miterlimit:10;}
	.st20{fill:#5FA5CC;stroke:#5FA5CC;stroke-width:0.75;stroke-linecap:round;stroke-linejoin:round;stroke-miterlimit:10;}
	.st21{fill:#2166AC;stroke:#2166AC;stroke-width:0.75;stroke-linecap:round;stroke-linejoin:round;stroke-miterlimit:10;}
	.st22{fill:#C03538;stroke:#C03538;stroke-width:0.75;stroke-linecap:round;stroke-linejoin:round;stroke-miterlimit:10;}
	.st23{fill:#144D8A;stroke:#144D8A;stroke-width:0.75;stroke-linecap:round;stroke-linejoin:round;stroke-miterlimit:10;}
	.st24{fill:#EE9878;stroke:#EE9878;stroke-width:0.75;stroke-linecap:round;stroke-linejoin:round;stroke-miterlimit:10;}
	.st25{fill:#92C5DE;stroke:#92C5DE;stroke-width:0.75;stroke-linecap:round;stroke-linejoin:round;stroke-miterlimit:10;}
	.st26{fill:#EC9475;stroke:#EC9475;stroke-width:0.75;stroke-linecap:round;stroke-linejoin:round;stroke-miterlimit:10;}
	.st27{fill:#3985BC;stroke:#3985BC;stroke-width:0.75;stroke-linecap:round;stroke-linejoin:round;stroke-miterlimit:10;}
	.st28{fill:#C2383A;stroke:#C2383A;stroke-width:0.75;stroke-linecap:round;stroke-linejoin:round;stroke-miterlimit:10;}
	.st29{fill:#BE3137;stroke:#BE3137;stroke-width:0.75;stroke-linecap:round;stroke-linejoin:round;stroke-miterlimit:10;}
	.st30{fill:#FACEB7;stroke:#FACEB7;stroke-width:0.75;stroke-linecap:round;stroke-linejoin:round;stroke-miterlimit:10;}
	.st31{fill:#FDE8DB;stroke:#FDE8DB;stroke-width:0.75;stroke-linecap:round;stroke-linejoin:round;stroke-miterlimit:10;}
	.st32{fill:#2971B1;stroke:#2971B1;stroke-width:0.75;stroke-linecap:round;stroke-linejoin:round;stroke-miterlimit:10;}
	.st33{fill:#E9F2F7;stroke:#E9F2F7;stroke-width:0.75;stroke-linecap:round;stroke-linejoin:round;stroke-miterlimit:10;}
	.st34{fill:#7FB9D7;stroke:#7FB9D7;stroke-width:0.75;stroke-linecap:round;stroke-linejoin:round;stroke-miterlimit:10;}
	.st35{fill:#2E78B5;stroke:#2E78B5;stroke-width:0.75;stroke-linecap:round;stroke-linejoin:round;stroke-miterlimit:10;}
	.st36{fill:#327CB7;stroke:#327CB7;stroke-width:0.75;stroke-linecap:round;stroke-linejoin:round;stroke-miterlimit:10;}
	.st37{fill:#FEEDE4;stroke:#FEEDE4;stroke-width:0.75;stroke-linecap:round;stroke-linejoin:round;stroke-miterlimit:10;}
	.st38{fill:#FDDFCD;stroke:#FDDFCD;stroke-width:0.75;stroke-linecap:round;stroke-linejoin:round;stroke-miterlimit:10;}
	.st39{fill:#D76450;stroke:#D76450;stroke-width:0.75;stroke-linecap:round;stroke-linejoin:round;stroke-miterlimit:10;}
	.st40{fill:#87BEDA;stroke:#87BEDA;stroke-width:0.75;stroke-linecap:round;stroke-linejoin:round;stroke-miterlimit:10;}
	.st41{fill:#FBD3BD;stroke:#FBD3BD;stroke-width:0.75;stroke-linecap:round;stroke-linejoin:round;stroke-miterlimit:10;}
	.st42{fill:#FCD6C1;stroke:#FCD6C1;stroke-width:0.75;stroke-linecap:round;stroke-linejoin:round;stroke-miterlimit:10;}
	.st43{fill:#CB4B43;stroke:#CB4B43;stroke-width:0.75;stroke-linecap:round;stroke-linejoin:round;stroke-miterlimit:10;}
	.st44{fill:#D8E9F2;stroke:#D8E9F2;stroke-width:0.75;stroke-linecap:round;stroke-linejoin:round;stroke-miterlimit:10;}
	.st45{fill:#CFE4EF;stroke:#CFE4EF;stroke-width:0.75;stroke-linecap:round;stroke-linejoin:round;stroke-miterlimit:10;}
	.st46{fill:#DA6B55;stroke:#DA6B55;stroke-width:0.75;stroke-linecap:round;stroke-linejoin:round;stroke-miterlimit:10;}
	.st47{fill:#F2F7FA;stroke:#F2F7FA;stroke-width:0.75;stroke-linecap:round;stroke-linejoin:round;stroke-miterlimit:10;}
	.st48{fill:#B8D8E9;stroke:#B8D8E9;stroke-width:0.75;stroke-linecap:round;stroke-linejoin:round;stroke-miterlimit:10;}
	.st49{fill:none;stroke:#BEBEBE;stroke-width:0.75;stroke-linecap:round;stroke-linejoin:round;stroke-miterlimit:10;}
</style>
<g id="surface11">
	<path class="st0" d="M-3-3h37.2v37.2H-3V-3z"/>
	<path class="st0" d="M-3,34.2h37.2v37.2H-3V34.2z"/>
	<path class="st0" d="M-3,71.3h37.2v37.2H-3V71.3z"/>
	<path class="st0" d="M-3,108.5h37.2v37.2H-3V108.5z"/>
	<path class="st0" d="M-3,145.7h37.2v37.2H-3V145.7z"/>
	<path class="st0" d="M-3,182.9h37.2V220H-3V182.9z"/>
	<path class="st0" d="M-3,220h37.2v37.2H-3V220z"/>
	<path class="st0" d="M-3,257.2h37.2v37.2H-3V257.2z"/>
	<path class="st0" d="M-3,294.4h37.2v37.2H-3V294.4z"/>
	<path class="st0" d="M-3,331.6h37.2v37.2H-3V331.6z"/>
	<path class="st0" d="M-3,368.7h37.2v37.2H-3V368.7z"/>
	<path class="st0" d="M34.2-3h37.2v37.2H34.2V-3z"/>
	<path class="st0" d="M34.2,34.2h37.2v37.2H34.2V34.2z"/>
	<path class="st0" d="M34.2,71.3h37.2v37.2H34.2V71.3z"/>
	<path class="st0" d="M34.2,108.5h37.2v37.2H34.2V108.5z"/>
	<path class="st0" d="M34.2,145.7h37.2v37.2H34.2V145.7z"/>
	<path class="st0" d="M34.2,182.9h37.2V220H34.2V182.9z"/>
	<path class="st0" d="M34.2,220h37.2v37.2H34.2V220z"/>
	<path class="st0" d="M34.2,257.2h37.2v37.2H34.2V257.2z"/>
	<path class="st0" d="M34.2,294.4h37.2v37.2H34.2V294.4z"/>
	<path class="st0" d="M34.2,331.6h37.2v37.2H34.2V331.6z"/>
	<path class="st0" d="M34.2,368.7h37.2v37.2H34.2V368.7z"/>
	<path class="st0" d="M71.3-3h37.2v37.2H71.3V-3z"/>
	<path class="st0" d="M71.3,34.2h37.2v37.2H71.3V34.2z"/>
	<path class="st0" d="M71.3,71.3h37.2v37.2H71.3V71.3z"/>
	<path class="st0" d="M71.3,108.5h37.2v37.2H71.3V108.5z"/>
	<path class="st0" d="M71.3,145.7h37.2v37.2H71.3V145.7z"/>
	<path class="st0" d="M71.3,182.9h37.2V220H71.3V182.9z"/>
	<path class="st0" d="M71.3,220h37.2v37.2H71.3V220z"/>
	<path class="st0" d="M71.3,257.2h37.2v37.2H71.3V257.2z"/>
	<path class="st0" d="M71.3,294.4h37.2v37.2H71.3V294.4z"/>
	<path class="st0" d="M71.3,331.6h37.2v37.2H71.3V331.6z"/>
	<path class="st0" d="M71.3,368.7h37.2v37.2H71.3V368.7z"/>
	<path class="st0" d="M108.5-3h37.2v37.2h-37.2V-3z"/>
	<path class="st0" d="M108.5,34.2h37.2v37.2h-37.2V34.2z"/>
	<path class="st0" d="M108.5,71.3h37.2v37.2h-37.2V71.3z"/>
	<path class="st0" d="M108.5,108.5h37.2v37.2h-37.2V108.5z"/>
	<path class="st0" d="M108.5,145.7h37.2v37.2h-37.2V145.7z"/>
	<path class="st0" d="M108.5,182.9h37.2V220h-37.2V182.9z"/>
	<path class="st0" d="M108.5,220h37.2v37.2h-37.2V220z"/>
	<path class="st0" d="M108.5,257.2h37.2v37.2h-37.2V257.2z"/>
	<path class="st0" d="M108.5,294.4h37.2v37.2h-37.2V294.4z"/>
	<path class="st0" d="M108.5,331.6h37.2v37.2h-37.2V331.6z"/>
	<path class="st0" d="M108.5,368.7h37.2v37.2h-37.2V368.7z"/>
	<path class="st0" d="M145.7-3h37.2v37.2h-37.2V-3z"/>
	<path class="st0" d="M145.7,34.2h37.2v37.2h-37.2V34.2z"/>
	<path class="st0" d="M145.7,71.3h37.2v37.2h-37.2V71.3z"/>
	<path class="st0" d="M145.7,108.5h37.2v37.2h-37.2V108.5z"/>
	<path class="st0" d="M145.7,145.7h37.2v37.2h-37.2V145.7z"/>
	<path class="st0" d="M145.7,182.9h37.2V220h-37.2V182.9z"/>
	<path class="st0" d="M145.7,220h37.2v37.2h-37.2V220z"/>
	<path class="st0" d="M145.7,257.2h37.2v37.2h-37.2V257.2z"/>
	<path class="st0" d="M145.7,294.4h37.2v37.2h-37.2V294.4z"/>
	<path class="st0" d="M145.7,331.6h37.2v37.2h-37.2V331.6z"/>
	<path class="st0" d="M145.7,368.7h37.2v37.2h-37.2V368.7z"/>
	<path class="st0" d="M182.9-3H220v37.2h-37.2V-3z"/>
	<path class="st0" d="M182.9,34.2H220v37.2h-37.2V34.2z"/>
	<path class="st0" d="M182.9,71.3H220v37.2h-37.2V71.3z"/>
	<path class="st0" d="M182.9,108.5H220v37.2h-37.2V108.5z"/>
	<path class="st0" d="M182.9,145.7H220v37.2h-37.2V145.7z"/>
	<path class="st0" d="M182.9,182.9H220V220h-37.2V182.9z"/>
	<path class="st0" d="M182.9,220H220v37.2h-37.2V220z"/>
	<path class="st0" d="M182.9,257.2H220v37.2h-37.2V257.2z"/>
	<path class="st0" d="M182.9,294.4H220v37.2h-37.2V294.4z"/>
	<path class="st0" d="M182.9,331.6H220v37.2h-37.2V331.6z"/>
	<path class="st0" d="M182.9,368.7H220v37.2h-37.2V368.7z"/>
	<path class="st0" d="M220-3h37.2v37.2H220V-3z"/>
	<path class="st0" d="M220,34.2h37.2v37.2H220V34.2z"/>
	<path class="st0" d="M220,71.3h37.2v37.2H220V71.3z"/>
	<path class="st0" d="M220,108.5h37.2v37.2H220V108.5z"/>
	<path class="st0" d="M220,145.7h37.2v37.2H220V145.7z"/>
	<path class="st0" d="M220,182.9h37.2V220H220V182.9z"/>
	<path class="st0" d="M220,220h37.2v37.2H220V220z"/>
	<path class="st0" d="M220,257.2h37.2v37.2H220V257.2z"/>
	<path class="st0" d="M220,294.4h37.2v37.2H220V294.4z"/>
	<path class="st0" d="M220,331.6h37.2v37.2H220V331.6z"/>
	<path class="st0" d="M220,368.7h37.2v37.2H220V368.7z"/>
	<path class="st0" d="M257.2-3h37.2v37.2h-37.2V-3z"/>
	<path class="st0" d="M257.2,34.2h37.2v37.2h-37.2V34.2z"/>
	<path class="st0" d="M257.2,71.3h37.2v37.2h-37.2V71.3z"/>
	<path class="st0" d="M257.2,108.5h37.2v37.2h-37.2V108.5z"/>
	<path class="st0" d="M257.2,145.7h37.2v37.2h-37.2V145.7z"/>
	<path class="st0" d="M257.2,182.9h37.2V220h-37.2V182.9z"/>
	<path class="st0" d="M257.2,220h37.2v37.2h-37.2V220z"/>
	<path class="st0" d="M257.2,257.2h37.2v37.2h-37.2V257.2z"/>
	<path class="st0" d="M257.2,294.4h37.2v37.2h-37.2V294.4z"/>
	<path class="st0" d="M257.2,331.6h37.2v37.2h-37.2V331.6z"/>
	<path class="st0" d="M257.2,368.7h37.2v37.2h-37.2V368.7z"/>
	<path class="st0" d="M294.4-3h37.2v37.2h-37.2V-3z"/>
	<path class="st0" d="M294.4,34.2h37.2v37.2h-37.2V34.2z"/>
	<path class="st0" d="M294.4,71.3h37.2v37.2h-37.2V71.3z"/>
	<path class="st0" d="M294.4,108.5h37.2v37.2h-37.2V108.5z"/>
	<path class="st0" d="M294.4,145.7h37.2v37.2h-37.2V145.7z"/>
	<path class="st0" d="M294.4,182.9h37.2V220h-37.2V182.9z"/>
	<path class="st0" d="M294.4,220h37.2v37.2h-37.2V220z"/>
	<path class="st0" d="M294.4,257.2h37.2v37.2h-37.2V257.2z"/>
	<path class="st0" d="M294.4,294.4h37.2v37.2h-37.2V294.4z"/>
	<path class="st0" d="M294.4,331.6h37.2v37.2h-37.2V331.6z"/>
	<path class="st0" d="M294.4,368.7h37.2v37.2h-37.2V368.7z"/>
	<path class="st0" d="M331.6-3h37.2v37.2h-37.2V-3z"/>
	<path class="st0" d="M331.6,34.2h37.2v37.2h-37.2V34.2z"/>
	<path class="st0" d="M331.6,71.3h37.2v37.2h-37.2V71.3z"/>
	<path class="st0" d="M331.6,108.5h37.2v37.2h-37.2V108.5z"/>
	<path class="st0" d="M331.6,145.7h37.2v37.2h-37.2V145.7z"/>
	<path class="st0" d="M331.6,182.9h37.2V220h-37.2V182.9z"/>
	<path class="st0" d="M331.6,220h37.2v37.2h-37.2V220z"/>
	<path class="st0" d="M331.6,257.2h37.2v37.2h-37.2V257.2z"/>
	<path class="st0" d="M331.6,294.4h37.2v37.2h-37.2V294.4z"/>
	<path class="st0" d="M331.6,331.6h37.2v37.2h-37.2V331.6z"/>
	<path class="st0" d="M331.6,368.7h37.2v37.2h-37.2V368.7z"/>
	<path class="st0" d="M368.7-3h37.2v37.2h-37.2V-3z"/>
	<path class="st0" d="M368.7,34.2h37.2v37.2h-37.2V34.2z"/>
	<path class="st0" d="M368.7,71.3h37.2v37.2h-37.2V71.3z"/>
	<path class="st0" d="M368.7,108.5h37.2v37.2h-37.2V108.5z"/>
	<path class="st0" d="M368.7,145.7h37.2v37.2h-37.2V145.7z"/>
	<path class="st0" d="M368.7,182.9h37.2V220h-37.2V182.9z"/>
	<path class="st0" d="M368.7,220h37.2v37.2h-37.2V220z"/>
	<path class="st0" d="M368.7,257.2h37.2v37.2h-37.2V257.2z"/>
	<path class="st0" d="M368.7,294.4h37.2v37.2h-37.2V294.4z"/>
	<path class="st0" d="M368.7,331.6h37.2v37.2h-37.2V331.6z"/>
	<path class="st0" d="M368.7,368.7h37.2v37.2h-37.2V368.7z"/>
	<path class="st1" d="M32.3,15.6c0,9.2-7.5,16.7-16.7,16.7S-1.1,24.8-1.1,15.6S6.3-1.1,15.6-1.1S32.3,6.3,32.3,15.6"/>
	<path class="st2" d="M31,52.8c0,8.5-6.9,15.4-15.4,15.4S0.1,61.3,0.1,52.8c0-8.5,6.9-15.4,15.4-15.4S31,44.2,31,52.8"/>
	<path class="st3" d="M31,89.9c0,8.5-6.9,15.4-15.4,15.4S0.2,98.4,0.2,89.9c0-8.5,6.9-15.4,15.4-15.4S31,81.4,31,89.9"/>
	<path class="st4" d="M30.3,127.1c0,8.1-6.6,14.7-14.7,14.7s-14.7-6.6-14.7-14.7s6.6-14.7,14.7-14.7S30.3,119,30.3,127.1"/>
	<path class="st5" d="M29.4,164.3c0,7.6-6.2,13.8-13.8,13.8s-13.8-6.2-13.8-13.8s6.2-13.8,13.8-13.8S29.4,156.7,29.4,164.3"/>
	<path class="st6" d="M31.2,201.5c0,8.6-7,15.6-15.6,15.6S0,210.1,0,201.5s7-15.6,15.6-15.6S31.2,192.8,31.2,201.5"/>
	<path class="st7" d="M26.4,238.6c0,6-4.8,10.8-10.8,10.8s-10.8-4.8-10.8-10.8c0-6,4.8-10.8,10.8-10.8S26.4,232.6,26.4,238.6"/>
	<path class="st8" d="M29.2,275.8c0,7.5-6.1,13.6-13.6,13.6s-13.6-6.1-13.6-13.6c0-7.5,6.1-13.6,13.6-13.6S29.2,268.3,29.2,275.8"/>
	<path class="st9" d="M28.5,313c0,7.2-5.8,13-13,13s-13-5.8-13-13s5.8-13,13-13S28.5,305.8,28.5,313"/>
	<path class="st10" d="M27.2,350.2c0,6.4-5.2,11.6-11.6,11.6S4,356.6,4,350.2s5.2-11.6,11.6-11.6S27.2,343.8,27.2,350.2"/>
	<path class="st11" d="M28,387.3c0,6.9-5.6,12.4-12.4,12.4s-12.4-5.6-12.4-12.4c0-6.9,5.6-12.4,12.4-12.4S28,380.5,28,387.3"/>
	<path class="st2" d="M68.2,15.6c0,8.5-6.9,15.4-15.4,15.4c-8.5,0-15.4-6.9-15.4-15.4S44.2,0.1,52.8,0.1
		C61.3,0.1,68.2,7.1,68.2,15.6"/>
	<path class="st1" d="M69.5,52.8c0,9.2-7.5,16.7-16.7,16.7C43.5,69.5,36,62,36,52.8S43.5,36,52.8,36C62,36,69.5,43.5,69.5,52.8"/>
	<path class="st12" d="M68.6,89.9c0,8.8-7.1,15.9-15.9,15.9c-8.8,0-15.9-7.1-15.9-15.9C36.9,81.2,44,74,52.8,74
		C61.5,74,68.6,81.2,68.6,89.9"/>
	<path class="st13" d="M68,127.1c0,8.4-6.8,15.3-15.3,15.3s-15.3-6.8-15.3-15.3s6.8-15.3,15.3-15.3S68,118.7,68,127.1"/>
	<path class="st14" d="M66.8,164.3c0,7.7-6.3,14-14,14c-7.7,0-14-6.3-14-14c0-7.7,6.3-14,14-14C60.5,150.3,66.8,156.6,66.8,164.3"/>
	<path class="st15" d="M67.6,201.5c0,8.2-6.6,14.8-14.8,14.8c-8.2,0-14.8-6.6-14.8-14.8s6.6-14.8,14.8-14.8
		C60.9,186.7,67.6,193.3,67.6,201.5"/>
	<path class="st16" d="M65.6,238.6c0,7.1-5.8,12.9-12.9,12.9c-7.1,0-12.9-5.8-12.9-12.9c0-7.1,5.8-12.9,12.9-12.9
		C59.9,225.8,65.6,231.5,65.6,238.6"/>
	<path class="st17" d="M67.8,275.8c0,8.3-6.7,15.1-15.1,15.1c-8.3,0-15.1-6.7-15.1-15.1c0-8.3,6.7-15.1,15.1-15.1
		C61.1,260.7,67.8,267.5,67.8,275.8"/>
	<path class="st18" d="M64.8,313c0,6.7-5.4,12.1-12.1,12.1c-6.7,0-12.1-5.4-12.1-12.1s5.4-12.1,12.1-12.1
		C59.4,300.9,64.8,306.3,64.8,313"/>
	<path class="st19" d="M64.5,350.2c0,6.5-5.3,11.7-11.7,11.7c-6.5,0-11.7-5.3-11.7-11.7s5.3-11.7,11.7-11.7
		C59.2,338.4,64.5,343.7,64.5,350.2"/>
	<path class="st20" d="M64.9,387.3c0,6.7-5.4,12.1-12.1,12.1s-12.1-5.4-12.1-12.1s5.4-12.1,12.1-12.1S64.9,380.6,64.9,387.3"/>
	<path class="st3" d="M105.3,15.6c0,8.5-6.9,15.4-15.4,15.4c-8.5,0-15.4-6.9-15.4-15.4c0-8.5,6.9-15.4,15.4-15.4
		C98.4,0.2,105.3,7.1,105.3,15.6"/>
	<path class="st12" d="M105.8,52.8c0,8.8-7.1,15.9-15.9,15.9c-8.8,0-15.9-7.1-15.9-15.9c0-8.8,7.1-15.9,15.9-15.9
		C98.7,36.9,105.8,44,105.8,52.8"/>
	<path class="st1" d="M106.7,89.9c0,9.2-7.5,16.7-16.7,16.7s-16.7-7.5-16.7-16.7c0-9.2,7.5-16.7,16.7-16.7S106.7,80.7,106.7,89.9"/>
	<path class="st21" d="M104.8,127.1c0,8.2-6.7,14.9-14.9,14.9c-8.2,0-14.9-6.7-14.9-14.9s6.7-14.9,14.9-14.9
		C98.1,112.2,104.8,118.9,104.8,127.1"/>
	<path class="st22" d="M104,164.3c0,7.8-6.3,14.1-14.1,14.1s-14.1-6.3-14.1-14.1c0-7.8,6.3-14.1,14.1-14.1S104,156.5,104,164.3"/>
	<path class="st23" d="M105.7,201.5c0,8.7-7.1,15.8-15.8,15.8s-15.8-7.1-15.8-15.8c0-8.7,7.1-15.8,15.8-15.8
		S105.7,192.8,105.7,201.5"/>
	<path class="st24" d="M100.9,238.6c0,6.1-4.9,11-11,11c-6.1,0-11-4.9-11-11c0-6.1,4.9-11,11-11C96,227.6,100.9,232.5,100.9,238.6"
		/>
	<path class="st22" d="M104,275.8c0,7.8-6.3,14.1-14.1,14.1c-7.8,0-14.1-6.3-14.1-14.1c0-7.8,6.3-14.1,14.1-14.1
		C97.7,261.7,104,268,104,275.8"/>
	<path class="st16" d="M102.8,313c0,7.1-5.8,12.9-12.9,12.9c-7.1,0-12.9-5.8-12.9-12.9c0-7.1,5.8-12.9,12.9-12.9
		C97,300.1,102.8,305.9,102.8,313"/>
	<path class="st11" d="M102.4,350.2c0,6.9-5.6,12.5-12.5,12.5s-12.5-5.6-12.5-12.5s5.6-12.5,12.5-12.5S102.4,343.3,102.4,350.2"/>
	<path class="st25" d="M100.4,387.3c0,5.8-4.7,10.5-10.5,10.5c-5.8,0-10.5-4.7-10.5-10.5c0-5.8,4.7-10.5,10.5-10.5
		C95.7,376.8,100.4,381.5,100.4,387.3"/>
	<path class="st4" d="M141.8,15.6c0,8.1-6.6,14.7-14.7,14.7s-14.7-6.6-14.7-14.7S119,0.8,127.1,0.8S141.8,7.4,141.8,15.6"/>
	<path class="st13" d="M142.4,52.8c0,8.4-6.8,15.3-15.3,15.3s-15.3-6.8-15.3-15.3s6.8-15.3,15.3-15.3S142.4,44.3,142.4,52.8"/>
	<path class="st21" d="M142,89.9c0,8.2-6.7,14.9-14.9,14.9c-8.2,0-14.9-6.7-14.9-14.9c0-8.2,6.7-14.9,14.9-14.9
		C135.3,75.1,142,81.7,142,89.9"/>
	<path class="st1" d="M143.8,127.1c0,9.2-7.5,16.7-16.7,16.7s-16.7-7.5-16.7-16.7s7.5-16.7,16.7-16.7S143.8,117.9,143.8,127.1"/>
	<path class="st26" d="M138.3,164.3c0,6.2-5,11.2-11.2,11.2c-6.2,0-11.2-5-11.2-11.2c0-6.2,5-11.2,11.2-11.2
		C133.3,153.1,138.3,158.1,138.3,164.3"/>
	<path class="st27" d="M140.7,201.5c0,7.5-6.1,13.6-13.6,13.6c-7.5,0-13.6-6.1-13.6-13.6c0-7.5,6.1-13.6,13.6-13.6
		C134.6,187.9,140.7,194,140.7,201.5"/>
	<path class="st28" d="M141.2,238.6c0,7.8-6.3,14.1-14.1,14.1c-7.8,0-14.1-6.3-14.1-14.1c0-7.8,6.3-14.1,14.1-14.1
		C134.9,224.6,141.2,230.9,141.2,238.6"/>
	<path class="st29" d="M141.3,275.8c0,7.9-6.4,14.2-14.2,14.2s-14.2-6.4-14.2-14.2c0-7.9,6.4-14.2,14.2-14.2
		S141.3,267.9,141.3,275.8"/>
	<path class="st30" d="M135.4,313c0,4.6-3.7,8.2-8.2,8.2c-4.6,0-8.2-3.7-8.2-8.2c0-4.6,3.7-8.2,8.2-8.2
		C131.7,304.7,135.4,308.4,135.4,313"/>
	<path class="st31" d="M133,350.2c0,3.3-2.7,5.9-5.9,5.9c-3.3,0-5.9-2.7-5.9-5.9c0-3.3,2.7-5.9,5.9-5.9
		C130.4,344.2,133,346.9,133,350.2"/>
	<path class="st32" d="M141.6,387.3c0,8-6.5,14.5-14.5,14.5s-14.5-6.5-14.5-14.5s6.5-14.5,14.5-14.5S141.6,379.3,141.6,387.3"/>
	<path class="st5" d="M178.1,15.6c0,7.6-6.2,13.8-13.8,13.8s-13.8-6.2-13.8-13.8s6.2-13.8,13.8-13.8S178.1,8,178.1,15.6"/>
	<path class="st14" d="M178.3,52.8c0,7.7-6.3,14-14,14c-7.7,0-14-6.3-14-14s6.3-14,14-14C172,38.8,178.3,45,178.3,52.8"/>
	<path class="st22" d="M178.4,89.9c0,7.8-6.3,14.1-14.1,14.1c-7.8,0-14.1-6.3-14.1-14.1c0-7.8,6.3-14.1,14.1-14.1
		C172.1,75.8,178.4,82.1,178.4,89.9"/>
	<path class="st26" d="M175.5,127.1c0,6.2-5,11.2-11.2,11.2c-6.2,0-11.2-5-11.2-11.2s5-11.2,11.2-11.2
		C170.5,115.9,175.5,120.9,175.5,127.1"/>
	<path class="st1" d="M181,164.3c0,9.2-7.5,16.7-16.7,16.7c-9.2,0-16.7-7.5-16.7-16.7c0-9.2,7.5-16.7,16.7-16.7
		C173.5,147.6,181,155,181,164.3"/>
	<path class="st22" d="M178.4,201.5c0,7.8-6.3,14.1-14.1,14.1c-7.8,0-14.1-6.3-14.1-14.1c0-7.8,6.3-14.1,14.1-14.1
		C172.1,187.3,178.4,193.7,178.4,201.5"/>
	<path class="st33" d="M169.3,238.6c0,6.7-10.1,6.7-10.1,0C159.2,231.9,169.3,231.9,169.3,238.6"/>
	<path class="st34" d="M175.4,275.8c0,6.1-5,11.1-11.1,11.1c-6.1,0-11.1-5-11.1-11.1c0-6.1,5-11.1,11.1-11.1
		C170.4,264.7,175.4,269.7,175.4,275.8"/>
	<path class="st35" d="M178.4,313c0,7.8-6.3,14.1-14.1,14.1c-7.8,0-14.1-6.3-14.1-14.1s6.3-14.1,14.1-14.1
		C172.1,298.9,178.4,305.2,178.4,313"/>
	<path class="st36" d="M178.3,350.2c0,7.7-6.3,14-14,14c-7.7,0-14-6.3-14-14c0-7.7,6.3-14,14-14C172,336.2,178.3,342.4,178.3,350.2"
		/>
	<path class="st37" d="M169.3,387.3c0,6.7-10.1,6.7-10.1,0C159.2,380.6,169.3,380.6,169.3,387.3"/>
	<path class="st6" d="M217,15.6c0,8.6-7,15.6-15.6,15.6s-15.6-7-15.6-15.6S192.8,0,201.5,0S217,7,217,15.6"/>
	<path class="st15" d="M216.2,52.8c0,8.2-6.6,14.8-14.8,14.8s-14.8-6.6-14.8-14.8S193.3,38,201.5,38S216.2,44.6,216.2,52.8"/>
	<path class="st23" d="M217.2,89.9c0,8.7-7.1,15.8-15.8,15.8s-15.8-7.1-15.8-15.8c0-8.7,7.1-15.8,15.8-15.8S217.2,81.2,217.2,89.9"
		/>
	<path class="st27" d="M215,127.1c0,7.5-6.1,13.6-13.6,13.6s-13.6-6.1-13.6-13.6s6.1-13.6,13.6-13.6S215,119.6,215,127.1"/>
	<path class="st22" d="M215.6,164.3c0,7.8-6.3,14.1-14.1,14.1s-14.1-6.3-14.1-14.1c0-7.8,6.3-14.1,14.1-14.1
		S215.6,156.5,215.6,164.3"/>
	<path class="st1" d="M218.2,201.5c0,9.2-7.5,16.7-16.7,16.7s-16.7-7.5-16.7-16.7s7.5-16.7,16.7-16.7S218.2,192.2,218.2,201.5"/>
	<path class="st38" d="M208.4,238.6c0,3.9-3.1,7-7,7s-7-3.1-7-7c0-3.9,3.1-7,7-7S208.4,234.8,208.4,238.6"/>
	<path class="st11" d="M213.9,275.8c0,6.9-5.6,12.5-12.5,12.5s-12.5-5.6-12.5-12.5c0-6.9,5.6-12.5,12.5-12.5
		S213.9,268.9,213.9,275.8"/>
	<path class="st14" d="M215.4,313c0,7.7-6.2,13.9-13.9,13.9s-13.9-6.2-13.9-13.9s6.2-13.9,13.9-13.9S215.4,305.3,215.4,313"/>
	<path class="st39" d="M214.2,350.2c0,7.1-5.7,12.8-12.8,12.8s-12.8-5.7-12.8-12.8c0-7.1,5.7-12.8,12.8-12.8
		S214.2,343.1,214.2,350.2"/>
	<path class="st40" d="M212.4,387.3c0,6-4.9,10.9-10.9,10.9s-10.9-4.9-10.9-10.9c0-6,4.9-10.9,10.9-10.9S212.4,381.3,212.4,387.3"/>
	<path class="st7" d="M249.5,15.6c0,6-4.8,10.8-10.8,10.8c-6,0-10.8-4.8-10.8-10.8c0-6,4.8-10.8,10.8-10.8
		C244.6,4.8,249.5,9.6,249.5,15.6"/>
	<path class="st16" d="M251.5,52.8c0,7.1-5.8,12.9-12.9,12.9c-7.1,0-12.9-5.8-12.9-12.9c0-7.1,5.8-12.9,12.9-12.9
		C245.7,39.9,251.5,45.7,251.5,52.8"/>
	<path class="st24" d="M249.6,89.9c0,6.1-4.9,11-11,11c-6.1,0-11-4.9-11-11c0-6.1,4.9-11,11-11C244.7,78.9,249.6,83.8,249.6,89.9"/>
	<path class="st28" d="M252.7,127.1c0,7.8-6.3,14.1-14.1,14.1c-7.8,0-14.1-6.3-14.1-14.1s6.3-14.1,14.1-14.1
		C246.4,113,252.7,119.3,252.7,127.1"/>
	<path class="st33" d="M243.7,164.3c0,6.7-10.1,6.7-10.1,0C233.6,157.5,243.7,157.5,243.7,164.3"/>
	<path class="st38" d="M245.6,201.5c0,3.9-3.1,7-7,7c-3.9,0-7-3.1-7-7c0-3.9,3.1-7,7-7C242.5,194.5,245.6,197.6,245.6,201.5"/>
	<path class="st1" d="M255.4,238.6c0,9.2-7.5,16.7-16.7,16.7s-16.7-7.5-16.7-16.7s7.5-16.7,16.7-16.7S255.4,229.4,255.4,238.6"/>
	<path class="st32" d="M253.1,275.8c0,8-6.5,14.4-14.4,14.4s-14.4-6.5-14.4-14.4c0-8,6.5-14.4,14.4-14.4S253.1,267.8,253.1,275.8"/>
	<path class="st41" d="M246.6,313c0,4.4-3.6,8-8,8s-8-3.6-8-8s3.6-8,8-8S246.6,308.5,246.6,313"/>
	<path class="st42" d="M246.3,350.2c0,4.3-3.5,7.7-7.7,7.7c-4.3,0-7.7-3.5-7.7-7.7c0-4.3,3.5-7.7,7.7-7.7
		C242.9,342.4,246.3,345.9,246.3,350.2"/>
	<path class="st43" d="M252.2,387.3c0,7.5-6.1,13.6-13.6,13.6s-13.6-6.1-13.6-13.6s6.1-13.6,13.6-13.6S252.2,379.8,252.2,387.3"/>
	<path class="st8" d="M289.4,15.6c0,7.5-6.1,13.6-13.6,13.6c-7.5,0-13.6-6.1-13.6-13.6s6.1-13.6,13.6-13.6
		C283.3,1.9,289.4,8.1,289.4,15.6"/>
	<path class="st17" d="M290.9,52.8c0,8.3-6.7,15.1-15.1,15.1c-8.3,0-15.1-6.7-15.1-15.1c0-8.3,6.7-15.1,15.1-15.1
		C284.1,37.7,290.9,44.4,290.9,52.8"/>
	<path class="st22" d="M289.9,89.9c0,7.8-6.3,14.1-14.1,14.1c-7.8,0-14.1-6.3-14.1-14.1c0-7.8,6.3-14.1,14.1-14.1
		C283.6,75.8,289.9,82.1,289.9,89.9"/>
	<path class="st29" d="M290,127.1c0,7.9-6.4,14.2-14.2,14.2c-7.9,0-14.2-6.4-14.2-14.2s6.4-14.2,14.2-14.2
		C283.7,112.9,290,119.2,290,127.1"/>
	<path class="st34" d="M286.9,164.3c0,6.1-5,11.1-11.1,11.1c-6.1,0-11.1-5-11.1-11.1c0-6.1,5-11.1,11.1-11.1
		C281.9,153.2,286.9,158.1,286.9,164.3"/>
	<path class="st11" d="M288.3,201.5c0,6.9-5.6,12.5-12.5,12.5s-12.5-5.6-12.5-12.5s5.6-12.5,12.5-12.5S288.3,194.6,288.3,201.5"/>
	<path class="st32" d="M290.2,238.6c0,8-6.5,14.4-14.4,14.4c-8,0-14.4-6.5-14.4-14.4s6.5-14.4,14.4-14.4
		C283.8,224.2,290.2,230.7,290.2,238.6"/>
	<path class="st1" d="M292.5,275.8c0,9.2-7.5,16.7-16.7,16.7s-16.7-7.5-16.7-16.7c0-9.2,7.5-16.7,16.7-16.7S292.5,266.6,292.5,275.8
		"/>
	<path class="st44" d="M282.7,313c0,3.8-3.1,6.9-6.9,6.9c-3.8,0-6.9-3.1-6.9-6.9c0-3.8,3.1-6.9,6.9-6.9
		C279.6,306.1,282.7,309.2,282.7,313"/>
	<path class="st45" d="M283.4,350.2c0,4.2-3.4,7.6-7.6,7.6c-4.2,0-7.6-3.4-7.6-7.6c0-4.2,3.4-7.6,7.6-7.6
		C280,342.6,283.4,346,283.4,350.2"/>
	<path class="st46" d="M288.4,387.3c0,7-5.7,12.6-12.6,12.6s-12.6-5.7-12.6-12.6s5.7-12.6,12.6-12.6S288.4,380.4,288.4,387.3"/>
	<path class="st9" d="M325.9,15.6c0,7.2-5.8,13-13,13s-13-5.8-13-13s5.8-13,13-13S325.9,8.4,325.9,15.6"/>
	<path class="st18" d="M325.1,52.8c0,6.7-5.4,12.1-12.1,12.1s-12.1-5.4-12.1-12.1s5.4-12.1,12.1-12.1S325.1,46.1,325.1,52.8"/>
	<path class="st16" d="M325.8,89.9c0,7.1-5.8,12.9-12.9,12.9s-12.9-5.8-12.9-12.9c0-7.1,5.8-12.9,12.9-12.9S325.8,82.8,325.8,89.9"
		/>
	<path class="st30" d="M321.2,127.1c0,4.6-3.7,8.2-8.2,8.2s-8.2-3.7-8.2-8.2s3.7-8.2,8.2-8.2S321.2,122.6,321.2,127.1"/>
	<path class="st35" d="M327.1,164.3c0,7.8-6.3,14.1-14.1,14.1s-14.1-6.3-14.1-14.1c0-7.8,6.3-14.1,14.1-14.1
		S327.1,156.5,327.1,164.3"/>
	<path class="st14" d="M326.9,201.5c0,7.7-6.2,13.9-13.9,13.9s-13.9-6.2-13.9-13.9s6.2-13.9,13.9-13.9S326.9,193.8,326.9,201.5"/>
	<path class="st41" d="M321,238.6c0,4.4-3.6,8-8,8s-8-3.6-8-8s3.6-8,8-8S321,234.2,321,238.6"/>
	<path class="st44" d="M319.8,275.8c0,3.8-3.1,6.9-6.9,6.9s-6.9-3.1-6.9-6.9c0-3.8,3.1-6.9,6.9-6.9S319.8,272,319.8,275.8"/>
	<path class="st1" d="M329.7,313c0,9.2-7.5,16.7-16.7,16.7s-16.7-7.5-16.7-16.7s7.5-16.7,16.7-16.7S329.7,303.7,329.7,313"/>
	<path class="st21" d="M327.9,350.2c0,8.2-6.7,14.9-14.9,14.9s-14.9-6.7-14.9-14.9c0-8.2,6.7-14.9,14.9-14.9
		S327.9,341.9,327.9,350.2"/>
	<path class="st47" d="M317,387.3c0,5.4-8,5.4-8,0C309,382,317,382,317,387.3"/>
	<path class="st10" d="M361.7,15.6c0,6.4-5.2,11.6-11.6,11.6c-6.4,0-11.6-5.2-11.6-11.6S343.7,4,350.2,4
		C356.6,4,361.7,9.2,361.7,15.6"/>
	<path class="st19" d="M361.9,52.8c0,6.5-5.3,11.7-11.7,11.7c-6.5,0-11.7-5.3-11.7-11.7S343.7,41,350.2,41
		C356.6,41,361.9,46.3,361.9,52.8"/>
	<path class="st11" d="M362.6,89.9c0,6.9-5.6,12.5-12.5,12.5c-6.9,0-12.5-5.6-12.5-12.5s5.6-12.5,12.5-12.5
		C357,77.5,362.6,83,362.6,89.9"/>
	<path class="st31" d="M356.1,127.1c0,3.3-2.7,5.9-5.9,5.9c-3.3,0-5.9-2.7-5.9-5.9s2.7-5.9,5.9-5.9
		C353.4,121.2,356.1,123.8,356.1,127.1"/>
	<path class="st36" d="M364.1,164.3c0,7.7-6.3,14-14,14c-7.7,0-14-6.3-14-14c0-7.7,6.3-14,14-14
		C357.9,150.3,364.1,156.6,364.1,164.3"/>
	<path class="st39" d="M362.9,201.5c0,7.1-5.7,12.8-12.8,12.8c-7.1,0-12.8-5.7-12.8-12.8c0-7.1,5.7-12.8,12.8-12.8
		C357.2,188.7,362.9,194.4,362.9,201.5"/>
	<path class="st42" d="M357.9,238.6c0,4.3-3.5,7.7-7.7,7.7c-4.3,0-7.7-3.5-7.7-7.7s3.5-7.7,7.7-7.7
		C354.4,230.9,357.9,234.4,357.9,238.6"/>
	<path class="st45" d="M357.7,275.8c0,4.2-3.4,7.6-7.6,7.6c-4.2,0-7.6-3.4-7.6-7.6c0-4.2,3.4-7.6,7.6-7.6
		C354.3,268.2,357.7,271.6,357.7,275.8"/>
	<path class="st21" d="M365.1,313c0,8.2-6.7,14.9-14.9,14.9c-8.2,0-14.9-6.7-14.9-14.9c0-8.2,6.7-14.9,14.9-14.9
		C358.4,298.1,365.1,304.7,365.1,313"/>
	<path class="st1" d="M366.9,350.2c0,9.2-7.5,16.7-16.7,16.7c-9.2,0-16.7-7.5-16.7-16.7s7.5-16.7,16.7-16.7
		C359.4,333.4,366.9,340.9,366.9,350.2"/>
	<path class="st48" d="M358.9,387.3c0,4.8-3.9,8.8-8.8,8.8c-4.8,0-8.8-3.9-8.8-8.8c0-4.8,3.9-8.8,8.8-8.8
		C355,378.6,358.9,382.5,358.9,387.3"/>
	<path class="st11" d="M399.7,15.6c0,6.9-5.6,12.4-12.4,12.4c-6.9,0-12.4-5.6-12.4-12.4c0-6.9,5.6-12.4,12.4-12.4
		C394.2,3.2,399.7,8.7,399.7,15.6"/>
	<path class="st20" d="M399.5,52.8c0,6.7-5.4,12.1-12.1,12.1s-12.1-5.4-12.1-12.1s5.4-12.1,12.1-12.1S399.5,46.1,399.5,52.8"/>
	<path class="st25" d="M397.8,89.9c0,5.8-4.7,10.5-10.5,10.5c-5.8,0-10.5-4.7-10.5-10.5c0-5.8,4.7-10.5,10.5-10.5
		C393.1,79.4,397.8,84.1,397.8,89.9"/>
	<path class="st32" d="M401.8,127.1c0,8-6.5,14.5-14.5,14.5s-14.5-6.5-14.5-14.5s6.5-14.5,14.5-14.5S401.8,119.1,401.8,127.1"/>
	<path class="st37" d="M392.4,164.3c0,6.7-10.1,6.7-10.1,0C382.3,157.6,392.4,157.6,392.4,164.3"/>
	<path class="st40" d="M398.3,201.5c0,6-4.9,10.9-10.9,10.9c-6,0-10.9-4.9-10.9-10.9c0-6,4.9-10.9,10.9-10.9
		C393.4,190.5,398.3,195.4,398.3,201.5"/>
	<path class="st43" d="M400.9,238.6c0,7.5-6.1,13.6-13.6,13.6s-13.6-6.1-13.6-13.6s6.1-13.6,13.6-13.6S400.9,231.1,400.9,238.6"/>
	<path class="st46" d="M399.9,275.8c0,7-5.7,12.6-12.6,12.6s-12.6-5.7-12.6-12.6c0-7,5.7-12.6,12.6-12.6S399.9,268.8,399.9,275.8"/>
	<path class="st47" d="M391.3,313c0,5.4-8,5.4-8,0S391.3,307.6,391.3,313"/>
	<path class="st48" d="M396.1,350.2c0,4.8-3.9,8.8-8.8,8.8s-8.8-3.9-8.8-8.8s3.9-8.8,8.8-8.8S396.1,345.3,396.1,350.2"/>
	<path class="st1" d="M404.1,387.3c0,9.2-7.5,16.7-16.7,16.7s-16.7-7.5-16.7-16.7s7.5-16.7,16.7-16.7S404.1,378.1,404.1,387.3"/>
	<path class="st49" d="M-3-3h37.2v37.2H-3V-3z"/>
	<path class="st49" d="M-3,34.2h37.2v37.2H-3V34.2z"/>
	<path class="st49" d="M-3,71.3h37.2v37.2H-3V71.3z"/>
	<path class="st49" d="M-3,108.5h37.2v37.2H-3V108.5z"/>
	<path class="st49" d="M-3,145.7h37.2v37.2H-3V145.7z"/>
	<path class="st49" d="M-3,182.9h37.2V220H-3V182.9z"/>
	<path class="st49" d="M-3,220h37.2v37.2H-3V220z"/>
	<path class="st49" d="M-3,257.2h37.2v37.2H-3V257.2z"/>
	<path class="st49" d="M-3,294.4h37.2v37.2H-3V294.4z"/>
	<path class="st49" d="M-3,331.6h37.2v37.2H-3V331.6z"/>
	<path class="st49" d="M-3,368.7h37.2v37.2H-3V368.7z"/>
	<path class="st49" d="M34.2-3h37.2v37.2H34.2V-3z"/>
	<path class="st49" d="M34.2,34.2h37.2v37.2H34.2V34.2z"/>
	<path class="st49" d="M34.2,71.3h37.2v37.2H34.2V71.3z"/>
	<path class="st49" d="M34.2,108.5h37.2v37.2H34.2V108.5z"/>
	<path class="st49" d="M34.2,145.7h37.2v37.2H34.2V145.7z"/>
	<path class="st49" d="M34.2,182.9h37.2V220H34.2V182.9z"/>
	<path class="st49" d="M34.2,220h37.2v37.2H34.2V220z"/>
	<path class="st49" d="M34.2,257.2h37.2v37.2H34.2V257.2z"/>
	<path class="st49" d="M34.2,294.4h37.2v37.2H34.2V294.4z"/>
	<path class="st49" d="M34.2,331.6h37.2v37.2H34.2V331.6z"/>
	<path class="st49" d="M34.2,368.7h37.2v37.2H34.2V368.7z"/>
	<path class="st49" d="M71.3-3h37.2v37.2H71.3V-3z"/>
	<path class="st49" d="M71.3,34.2h37.2v37.2H71.3V34.2z"/>
	<path class="st49" d="M71.3,71.3h37.2v37.2H71.3V71.3z"/>
	<path class="st49" d="M71.3,108.5h37.2v37.2H71.3V108.5z"/>
	<path class="st49" d="M71.3,145.7h37.2v37.2H71.3V145.7z"/>
	<path class="st49" d="M71.3,182.9h37.2V220H71.3V182.9z"/>
	<path class="st49" d="M71.3,220h37.2v37.2H71.3V220z"/>
	<path class="st49" d="M71.3,257.2h37.2v37.2H71.3V257.2z"/>
	<path class="st49" d="M71.3,294.4h37.2v37.2H71.3V294.4z"/>
	<path class="st49" d="M71.3,331.6h37.2v37.2H71.3V331.6z"/>
	<path class="st49" d="M71.3,368.7h37.2v37.2H71.3V368.7z"/>
	<path class="st49" d="M108.5-3h37.2v37.2h-37.2V-3z"/>
	<path class="st49" d="M108.5,34.2h37.2v37.2h-37.2V34.2z"/>
	<path class="st49" d="M108.5,71.3h37.2v37.2h-37.2V71.3z"/>
	<path class="st49" d="M108.5,108.5h37.2v37.2h-37.2V108.5z"/>
	<path class="st49" d="M108.5,145.7h37.2v37.2h-37.2V145.7z"/>
	<path class="st49" d="M108.5,182.9h37.2V220h-37.2V182.9z"/>
	<path class="st49" d="M108.5,220h37.2v37.2h-37.2V220z"/>
	<path class="st49" d="M108.5,257.2h37.2v37.2h-37.2V257.2z"/>
	<path class="st49" d="M108.5,294.4h37.2v37.2h-37.2V294.4z"/>
	<path class="st49" d="M108.5,331.6h37.2v37.2h-37.2V331.6z"/>
	<path class="st49" d="M108.5,368.7h37.2v37.2h-37.2V368.7z"/>
	<path class="st49" d="M145.7-3h37.2v37.2h-37.2V-3z"/>
	<path class="st49" d="M145.7,34.2h37.2v37.2h-37.2V34.2z"/>
	<path class="st49" d="M145.7,71.3h37.2v37.2h-37.2V71.3z"/>
	<path class="st49" d="M145.7,108.5h37.2v37.2h-37.2V108.5z"/>
	<path class="st49" d="M145.7,145.7h37.2v37.2h-37.2V145.7z"/>
	<path class="st49" d="M145.7,182.9h37.2V220h-37.2V182.9z"/>
	<path class="st49" d="M145.7,220h37.2v37.2h-37.2V220z"/>
	<path class="st49" d="M145.7,257.2h37.2v37.2h-37.2V257.2z"/>
	<path class="st49" d="M145.7,294.4h37.2v37.2h-37.2V294.4z"/>
	<path class="st49" d="M145.7,331.6h37.2v37.2h-37.2V331.6z"/>
	<path class="st49" d="M145.7,368.7h37.2v37.2h-37.2V368.7z"/>
	<path class="st49" d="M182.9-3H220v37.2h-37.2V-3z"/>
	<path class="st49" d="M182.9,34.2H220v37.2h-37.2V34.2z"/>
	<path class="st49" d="M182.9,71.3H220v37.2h-37.2V71.3z"/>
	<path class="st49" d="M182.9,108.5H220v37.2h-37.2V108.5z"/>
	<path class="st49" d="M182.9,145.7H220v37.2h-37.2V145.7z"/>
	<path class="st49" d="M182.9,182.9H220V220h-37.2V182.9z"/>
	<path class="st49" d="M182.9,220H220v37.2h-37.2V220z"/>
	<path class="st49" d="M182.9,257.2H220v37.2h-37.2V257.2z"/>
	<path class="st49" d="M182.9,294.4H220v37.2h-37.2V294.4z"/>
	<path class="st49" d="M182.9,331.6H220v37.2h-37.2V331.6z"/>
	<path class="st49" d="M182.9,368.7H220v37.2h-37.2V368.7z"/>
	<path class="st49" d="M220-3h37.2v37.2H220V-3z"/>
	<path class="st49" d="M220,34.2h37.2v37.2H220V34.2z"/>
	<path class="st49" d="M220,71.3h37.2v37.2H220V71.3z"/>
	<path class="st49" d="M220,108.5h37.2v37.2H220V108.5z"/>
	<path class="st49" d="M220,145.7h37.2v37.2H220V145.7z"/>
	<path class="st49" d="M220,182.9h37.2V220H220V182.9z"/>
	<path class="st49" d="M220,220h37.2v37.2H220V220z"/>
	<path class="st49" d="M220,257.2h37.2v37.2H220V257.2z"/>
	<path class="st49" d="M220,294.4h37.2v37.2H220V294.4z"/>
	<path class="st49" d="M220,331.6h37.2v37.2H220V331.6z"/>
	<path class="st49" d="M220,368.7h37.2v37.2H220V368.7z"/>
	<path class="st49" d="M257.2-3h37.2v37.2h-37.2V-3z"/>
	<path class="st49" d="M257.2,34.2h37.2v37.2h-37.2V34.2z"/>
	<path class="st49" d="M257.2,71.3h37.2v37.2h-37.2V71.3z"/>
	<path class="st49" d="M257.2,108.5h37.2v37.2h-37.2V108.5z"/>
	<path class="st49" d="M257.2,145.7h37.2v37.2h-37.2V145.7z"/>
	<path class="st49" d="M257.2,182.9h37.2V220h-37.2V182.9z"/>
	<path class="st49" d="M257.2,220h37.2v37.2h-37.2V220z"/>
	<path class="st49" d="M257.2,257.2h37.2v37.2h-37.2V257.2z"/>
	<path class="st49" d="M257.2,294.4h37.2v37.2h-37.2V294.4z"/>
	<path class="st49" d="M257.2,331.6h37.2v37.2h-37.2V331.6z"/>
	<path class="st49" d="M257.2,368.7h37.2v37.2h-37.2V368.7z"/>
	<path class="st49" d="M294.4-3h37.2v37.2h-37.2V-3z"/>
	<path class="st49" d="M294.4,34.2h37.2v37.2h-37.2V34.2z"/>
	<path class="st49" d="M294.4,71.3h37.2v37.2h-37.2V71.3z"/>
	<path class="st49" d="M294.4,108.5h37.2v37.2h-37.2V108.5z"/>
	<path class="st49" d="M294.4,145.7h37.2v37.2h-37.2V145.7z"/>
	<path class="st49" d="M294.4,182.9h37.2V220h-37.2V182.9z"/>
	<path class="st49" d="M294.4,220h37.2v37.2h-37.2V220z"/>
	<path class="st49" d="M294.4,257.2h37.2v37.2h-37.2V257.2z"/>
	<path class="st49" d="M294.4,294.4h37.2v37.2h-37.2V294.4z"/>
	<path class="st49" d="M294.4,331.6h37.2v37.2h-37.2V331.6z"/>
	<path class="st49" d="M294.4,368.7h37.2v37.2h-37.2V368.7z"/>
	<path class="st49" d="M331.6-3h37.2v37.2h-37.2V-3z"/>
	<path class="st49" d="M331.6,34.2h37.2v37.2h-37.2V34.2z"/>
	<path class="st49" d="M331.6,71.3h37.2v37.2h-37.2V71.3z"/>
	<path class="st49" d="M331.6,108.5h37.2v37.2h-37.2V108.5z"/>
	<path class="st49" d="M331.6,145.7h37.2v37.2h-37.2V145.7z"/>
	<path class="st49" d="M331.6,182.9h37.2V220h-37.2V182.9z"/>
	<path class="st49" d="M331.6,220h37.2v37.2h-37.2V220z"/>
	<path class="st49" d="M331.6,257.2h37.2v37.2h-37.2V257.2z"/>
	<path class="st49" d="M331.6,294.4h37.2v37.2h-37.2V294.4z"/>
	<path class="st49" d="M331.6,331.6h37.2v37.2h-37.2V331.6z"/>
	<path class="st49" d="M331.6,368.7h37.2v37.2h-37.2V368.7z"/>
	<path class="st49" d="M368.7-3h37.2v37.2h-37.2V-3z"/>
	<path class="st49" d="M368.7,34.2h37.2v37.2h-37.2V34.2z"/>
	<path class="st49" d="M368.7,71.3h37.2v37.2h-37.2V71.3z"/>
	<path class="st49" d="M368.7,108.5h37.2v37.2h-37.2V108.5z"/>
	<path class="st49" d="M368.7,145.7h37.2v37.2h-37.2V145.7z"/>
	<path class="st49" d="M368.7,182.9h37.2V220h-37.2V182.9z"/>
	<path class="st49" d="M368.7,220h37.2v37.2h-37.2V220z"/>
	<path class="st49" d="M368.7,257.2h37.2v37.2h-37.2V257.2z"/>
	<path class="st49" d="M368.7,294.4h37.2v37.2h-37.2V294.4z"/>
	<path class="st49" d="M368.7,331.6h37.2v37.2h-37.2V331.6z"/>
	<path class="st49" d="M368.7,368.7h37.2v37.2h-37.2V368.7z"/>
	<path class="st49" d="M-3,405.9h408.9V-3H-3V405.9z"/>
</g>
</svg>
